<?xml version="1.0" encoding="utf-8"?>
<!-- Generator: Adobe Illustrator 26.0.3, SVG Export Plug-In . SVG Version: 6.00 Build 0)  -->
<svg version="1.1" id="Layer_1" xmlns="http://www.w3.org/2000/svg" xmlns:xlink="http://www.w3.org/1999/xlink" x="0px" y="0px"
	 viewBox="0 0 140 152.7" style="enable-background:new 0 0 140 152.7;" xml:space="preserve">
<style type="text/css">
	.st0{fill:#326ED8;}
</style>
<g id="Hamburger_Menu_Open">
	<path class="st0" d="M138.3,22L138.3,22c-8.8,0-11.9-5.1-11.9-10.4c0-4.5,2.7-8.5,6.8-10.2c-27-6-21,21.2-41.1,21.2
		c-7.9,0-11.5-4.9-11.5-11c0-4.5,2.7-8.5,6.8-10.2C65.3-6.6,58.9,22,45.3,22h-0.1c-8.8,0-11.9-5.1-11.9-10.4c0-4.5,2.7-8.5,6.8-10.2
		C13.5-4.5,18.9,21.8,0,22.6v23.7h140V21.9C139.4,22,138.9,22,138.3,22z"/>
	<path class="st0" d="M138.3,75.2L138.3,75.2c-8.8,0-11.9-5-11.9-10.4c0-4.5,2.7-8.5,6.8-10.2c-27-6-21,21.2-41.1,21.2
		c-7.9,0-11.5-4.9-11.5-11c0-4.5,2.7-8.5,6.8-10.2c-22.1-8-28.5,20.6-42.1,20.6h-0.1c-8.8,0-11.9-5-11.9-10.4
		c0-4.5,2.7-8.5,6.8-10.2C13.5,48.7,18.9,75,0,75.8v23.7h140V75C139.4,75.1,138.9,75.2,138.3,75.2z"/>
	<path class="st0" d="M138.3,128.4L138.3,128.4c-8.8,0-11.9-5.1-11.9-10.4c0-4.5,2.7-8.5,6.8-10.2c-27-6-21,21.2-41.1,21.2
		c-7.9,0-11.5-4.9-11.5-11c0-4.5,2.7-8.5,6.8-10.2c-22.1-8-28.5,20.6-42.1,20.6h-0.1c-8.8,0-11.9-5.1-11.9-10.4
		c0-4.5,2.7-8.5,6.8-10.2C13.5,101.9,18.9,128.1,0,129v23.7h140v-24.5C139.4,128.3,138.9,128.4,138.3,128.4z"/>
</g>
</svg>
