<svg id="Layer_1" data-name="Layer 1" xmlns="http://www.w3.org/2000/svg" viewBox="0 0 137.11 149.54"><defs><style>.cls-1,.cls-2{fill:#326ed8;}.cls-2{stroke:#fff;stroke-miterlimit:10;}</style></defs><g id="Hamburger_Menu_Close" data-name="Hamburger Menu Close"><path class="cls-1" d="M20.4,122.84c-4.44,7.16-2.26,15.28.44,20.4,0,0,12.64-3.32,42.42-33.1,88-87.95,72.86-103,72.86-103s-16.18-14-104.12,74C3.18,109.91,0,122.39,0,122.4c5.11,2.7,13.23,4.88,20.4.44"/><path class="cls-2" d="M116.71,122.84c4.44,7.16,2.26,15.28-.44,20.4,0,0-12.64-3.32-42.42-33.1C-14.1,22.19,1,7.11,1,7.11s16.19-14,104.13,74c28.82,28.82,32,41.3,32,41.31-5.12,2.7-13.24,4.88-20.4.44"/></g></svg>