<?xml version="1.0" encoding="utf-8"?>
<!-- Generator: Adobe Illustrator 26.1.0, SVG Export Plug-In . SVG Version: 6.00 Build 0)  -->
<svg version="1.1" id="Layer_1" xmlns="http://www.w3.org/2000/svg" xmlns:xlink="http://www.w3.org/1999/xlink" x="0px" y="0px"
	 viewBox="0 0 1366 3346.6" style="enable-background:new 0 0 1366 3346.6;" xml:space="preserve">
<style type="text/css">
	.st0{fill:#5AB9C9;}
	.st1{fill:#AFE5EE;}
</style>
<path class="st0" d="M1117.4-110c-89.3,0-168.4-30.2-217.2-76.7C851.4-140.2,772.3-110,683-110s-168.4-30.2-217.2-76.7
	C417-140.2,337.9-110,248.6-110C136.2-110,40-157.8,0-225.6v663.5h1366v-663.5C1326-157.8,1229.8-110,1117.4-110z"/>
<path class="st1" d="M1117.4,167.6c-89.3,0-168.4-30.2-217.2-76.7c-48.8,46.5-127.9,76.7-217.2,76.7s-168.4-30.2-217.2-76.7
	c-48.8,46.5-127.9,76.7-217.2,76.7C136.2,167.6,40,119.8,0,52v663.5h1366V52C1326,119.8,1229.8,167.6,1117.4,167.6z"/>
<path class="st0" d="M1117.4,584.5c-89.3,0-168.4-30.2-217.2-76.7c-48.8,46.5-127.9,76.7-217.2,76.7s-168.4-30.2-217.2-76.7
	c-48.8,46.5-127.9,76.7-217.2,76.7C136.2,584.5,40,536.7,0,468.9v663.5h1366V468.9C1326,536.7,1229.8,584.5,1117.4,584.5z"/>
<path class="st1" d="M1117.4,939.1c-89.3,0-168.4-30.2-217.2-76.7c-48.8,46.5-127.9,76.7-217.2,76.7s-168.4-30.2-217.2-76.7
	c-48.8,46.5-127.9,76.7-217.2,76.7C136.2,939.1,40,891.3,0,823.5V1487h1366V823.5C1326,891.3,1229.8,939.1,1117.4,939.1z"/>
<path class="st0" d="M1117.4,1356c-89.3,0-168.4-30.2-217.2-76.7c-48.8,46.5-127.9,76.7-217.2,76.7s-168.4-30.2-217.2-76.7
	c-48.8,46.5-127.9,76.7-217.2,76.7C136.2,1356,40,1308.2,0,1240.4v663.5h1366v-663.5C1326,1308.2,1229.8,1356,1117.4,1356z"/>
<path class="st1" d="M1117.4,1681.3c-89.3,0-168.4-30.2-217.2-76.7c-48.8,46.5-127.9,76.7-217.2,76.7s-168.4-30.2-217.2-76.7
	c-48.8,46.5-127.9,76.7-217.2,76.7c-112.3,0-208.6-47.8-248.6-115.6v663.5h1366v-663.5C1326,1633.5,1229.8,1681.3,1117.4,1681.3z"/>
<path class="st0" d="M1117.4,2098.2c-89.3,0-168.4-30.2-217.2-76.7c-48.8,46.5-127.9,76.7-217.2,76.7s-168.4-30.2-217.2-76.7
	c-48.8,46.5-127.9,76.7-217.2,76.7c-112.3,0-208.6-47.8-248.6-115.6V2646h1366v-663.4C1326,2050.4,1229.8,2098.2,1117.4,2098.2z"/>
<path class="st1" d="M1117.4,2381.9c-89.3,0-168.4-30.2-217.2-76.7c-48.8,46.5-127.9,76.7-217.2,76.7s-168.4-30.2-217.2-76.7
	c-48.8,46.5-127.9,76.7-217.2,76.7c-112.3,0-208.6-47.8-248.6-115.6v663.5h1366v-663.5C1326,2334.1,1229.8,2381.9,1117.4,2381.9z"/>
<path class="st0" d="M1117.4,2798.7c-89.3,0-168.4-30.2-217.2-76.7c-48.8,46.5-127.9,76.7-217.2,76.7s-168.4-30.2-217.2-76.7
	c-48.8,46.5-127.9,76.7-217.2,76.7c-112.3,0-208.6-47.8-248.6-115.6v663.5h1366v-663.5C1326,2750.9,1229.8,2798.7,1117.4,2798.7z"/>
</svg>
